<?xml version="1.0" encoding="utf-8"?>
<svg width="1962px" height="512px" viewBox="0 0 1962 512" version="1.1" xmlns:xlink="http://www.w3.org/1999/xlink" xmlns="http://www.w3.org/2000/svg">
  <defs>
    <path d="M1962 0L1962 0L1962 512L0 512L0 0L1962 0Z" id="path_1" />
    <path d="M370 0L370 0L370 370L0 370L0 0L370 0Z" id="path_2" />
    <clipPath id="clip_1">
      <use xlink:href="#path_1" clip-rule="evenodd" fill-rule="evenodd" />
    </clipPath>
    <clipPath id="clip_2">
      <use xlink:href="#path_2" clip-rule="evenodd" fill-rule="evenodd" />
    </clipPath>
  </defs>
  <g id="logo_dark">
    <path d="M1962 0L1962 0L1962 512L0 512L0 0L1962 0Z" id="logo_dark" fill="none" stroke="none" />
    <g id="Logo" transform="translate(23.132751 17)" clip-path="url(#clip_1)">
      <g id="on_white">
        <g id="Name" transform="translate(522.09326 5.0899963)">
          <path d="M919 408.15C919 396.533 921.289 386.42 925.867 377.81C930.446 369.2 936.801 362.606 944.932 358.028C953.064 353.449 962.392 351.16 972.915 351.16C986.855 351.16 998.301 354.645 1007.25 361.615C1016.2 368.585 1021.77 377.947 1023.96 389.7L1014.33 389.7C1012.55 380.133 1007.94 372.617 1000.49 367.15C993.039 361.683 983.848 358.95 972.915 358.95C964.715 358.95 957.267 360.761 950.57 364.383C943.873 368.004 938.509 373.539 934.477 380.988C930.446 388.436 928.43 397.49 928.43 408.15C928.43 418.947 930.446 428.035 934.477 435.415C938.509 442.795 943.873 448.33 950.57 452.02C957.267 455.71 964.715 457.555 972.915 457.555C983.848 457.555 993.039 454.822 1000.49 449.355C1007.94 443.888 1012.55 436.372 1014.33 426.805L1023.96 426.805C1021.77 438.422 1016.17 447.783 1007.15 454.89C998.13 461.997 986.718 465.55 972.915 465.55C962.392 465.55 953.064 463.227 944.932 458.58C936.801 453.933 930.446 447.271 925.867 438.593C921.289 429.914 919 419.767 919 408.15L919 408.15ZM1102.47 350.34C1115.59 350.34 1126.32 354.406 1134.66 362.538C1143 370.669 1147.17 382.73 1147.17 398.72L1147.17 463.91L1138.15 463.91L1138.15 399.335C1138.15 386.078 1134.8 375.931 1128.1 368.893C1121.4 361.854 1112.31 358.335 1100.83 358.335C1088.81 358.335 1079.21 362.162 1072.03 369.815C1064.86 377.468 1061.27 388.812 1061.27 403.845L1061.27 463.91L1052.04 463.91L1052.04 312.21L1061.27 312.21L1061.27 376.17C1064.41 367.833 1069.68 361.444 1077.05 357.003C1084.44 352.561 1092.91 350.34 1102.47 350.34L1102.47 350.34ZM1174.02 408.15C1174.02 396.67 1176.31 386.625 1180.89 378.015C1185.47 369.405 1191.82 362.777 1199.95 358.13C1208.08 353.483 1217.34 351.16 1227.73 351.16C1239.48 351.16 1249.46 354.03 1257.66 359.77C1265.86 365.51 1271.6 372.822 1274.88 381.705L1274.88 352.595L1284.1 352.595L1284.1 463.91L1274.88 463.91L1274.88 434.595C1271.6 443.615 1265.83 451.029 1257.56 456.838C1249.29 462.646 1239.35 465.55 1227.73 465.55C1217.34 465.55 1208.08 463.193 1199.95 458.478C1191.82 453.763 1185.47 447.066 1180.89 438.388C1176.31 429.709 1174.02 419.63 1174.02 408.15L1174.02 408.15ZM1274.88 408.15C1274.88 398.447 1272.86 389.871 1268.83 382.423C1264.8 374.974 1259.3 369.234 1252.33 365.203C1245.36 361.171 1237.57 359.155 1228.96 359.155C1219.94 359.155 1212.01 361.103 1205.18 364.997C1198.35 368.893 1193.02 374.53 1189.19 381.91C1185.36 389.29 1183.45 398.037 1183.45 408.15C1183.45 418.263 1185.36 427.01 1189.19 434.39C1193.02 441.77 1198.38 447.442 1205.28 451.405C1212.18 455.368 1220.08 457.35 1228.96 457.35C1237.57 457.35 1245.39 455.334 1252.43 451.303C1259.47 447.271 1264.97 441.531 1268.94 434.083C1272.9 426.634 1274.88 417.99 1274.88 408.15L1274.88 408.15ZM1331.46 360.59L1331.46 434.185C1331.46 442.385 1332.96 448.023 1335.97 451.098C1338.98 454.173 1344.31 455.71 1351.96 455.71L1364.46 455.71L1364.46 463.91L1350.52 463.91C1340.82 463.91 1333.68 461.621 1329.1 457.043C1324.52 452.464 1322.23 444.845 1322.23 434.185L1322.23 360.59L1305.43 360.59L1305.43 352.595L1322.23 352.595L1322.23 324.305L1331.46 324.305L1331.46 352.595L1364.46 352.595L1364.46 360.59L1331.46 360.59Z" id="Path" fill="#FFFFFF" stroke="none" />
          <path d="M178.94 232.622L65.741 232.622L46.291 287.86L0 287.86L96.861 17.116L148.209 17.116L245.07 287.86L198.39 287.86L178.94 232.622ZM166.492 196.445L122.535 70.798L78.189 196.445L166.492 196.445ZM380.053 291.361C359.825 291.361 341.542 286.758 325.204 277.552C308.866 268.345 296.029 255.379 286.693 238.652C277.357 221.924 272.689 202.539 272.689 180.496C272.689 158.712 277.487 139.392 287.082 122.535C296.677 105.678 309.774 92.7117 326.371 83.635C342.968 74.5583 361.511 70.02 381.998 70.02C402.485 70.02 421.028 74.5583 437.625 83.635C454.222 92.7117 467.319 105.678 476.914 122.535C486.509 139.392 491.307 158.712 491.307 180.496C491.307 202.28 486.38 221.6 476.525 238.457C466.67 255.314 453.25 268.345 436.263 277.552C419.277 286.758 400.54 291.361 380.053 291.361L380.053 291.361ZM380.053 252.85C391.464 252.85 402.161 250.127 412.146 244.681C422.13 239.235 430.234 231.066 436.458 220.174C442.682 209.282 445.794 196.056 445.794 180.496C445.794 164.936 442.812 151.775 436.847 141.013C430.882 130.25 422.973 122.146 413.118 116.7C403.263 111.254 392.631 108.531 381.22 108.531C369.809 108.531 359.241 111.254 349.516 116.7C339.791 122.146 332.076 130.25 326.371 141.013C320.666 151.775 317.813 164.936 317.813 180.496C317.813 203.577 323.713 221.406 335.512 233.984C347.312 246.561 362.159 252.85 380.053 252.85L380.053 252.85ZM579.61 105.419C587.131 95.0457 597.439 86.5525 610.535 79.9395C623.632 73.3265 638.219 70.02 654.298 70.02C673.229 70.02 690.345 74.5584 705.646 83.635C720.947 92.7117 733.006 105.614 741.823 122.341C750.64 139.068 755.049 158.193 755.049 179.718C755.049 201.243 750.64 220.498 741.823 237.485C733.006 254.471 720.882 267.697 705.451 277.163C690.021 286.628 672.97 291.361 654.298 291.361C637.701 291.361 622.983 288.119 610.146 281.636C597.31 275.153 587.131 266.854 579.61 256.74L579.61 287.86L535.264 287.86L535.264 0L579.61 0L579.61 105.419ZM709.925 179.718C709.925 164.936 706.878 152.164 700.784 141.402C694.689 130.639 686.65 122.47 676.665 116.895C666.681 111.319 655.984 108.531 644.573 108.531C633.422 108.531 622.854 111.384 612.87 117.089C602.885 122.794 594.846 131.093 588.752 141.985C582.657 152.877 579.61 165.714 579.61 180.496C579.61 195.278 582.657 208.18 588.752 219.202C594.846 230.223 602.885 238.587 612.87 244.292C622.854 249.997 633.422 252.85 644.573 252.85C655.984 252.85 666.681 249.932 676.665 244.098C686.65 238.263 694.689 229.769 700.784 218.618C706.878 207.467 709.925 194.5 709.925 179.718L709.925 179.718ZM843.352 105.419C850.873 95.0457 861.181 86.5525 874.278 79.9395C887.374 73.3265 901.961 70.02 918.04 70.02C936.971 70.02 954.087 74.5584 969.388 83.635C984.689 92.7117 996.748 105.614 1005.57 122.341C1014.38 139.068 1018.79 158.193 1018.79 179.718C1018.79 201.243 1014.38 220.498 1005.57 237.485C996.748 254.471 984.624 267.697 969.194 277.163C953.763 286.628 936.712 291.361 918.04 291.361C901.443 291.361 886.725 288.119 873.888 281.636C861.052 275.153 850.873 266.854 843.352 256.74L843.352 287.86L799.006 287.86L799.006 0L843.352 0L843.352 105.419ZM973.667 179.718C973.667 164.936 970.62 152.164 964.526 141.402C958.431 130.639 950.392 122.47 940.408 116.895C930.423 111.319 919.726 108.531 908.315 108.531C897.164 108.531 886.596 111.384 876.612 117.089C866.627 122.794 858.588 131.093 852.493 141.985C846.399 152.877 843.352 165.714 843.352 180.496C843.352 195.278 846.399 208.18 852.493 219.202C858.588 230.223 866.627 238.587 876.612 244.292C886.596 249.997 897.164 252.85 908.315 252.85C919.726 252.85 930.423 249.932 940.408 244.098C950.392 238.263 958.431 229.769 964.526 218.618C970.62 207.467 973.667 194.5 973.667 179.718L973.667 179.718ZM1107.09 0L1107.09 287.86L1062.75 287.86L1062.75 0L1107.09 0ZM1361.89 175.439C1361.89 183.478 1361.37 190.74 1360.33 197.223L1196.56 197.223C1197.86 214.339 1204.21 228.084 1215.63 238.457C1227.04 248.83 1241.04 254.017 1257.64 254.017C1281.5 254.017 1298.35 244.033 1308.21 224.064L1356.05 224.064C1349.57 243.773 1337.84 259.917 1320.85 272.495C1303.86 285.072 1282.79 291.361 1257.64 291.361C1237.15 291.361 1218.8 286.758 1202.59 277.552C1186.39 268.345 1173.68 255.379 1164.47 238.652C1155.27 221.924 1150.66 202.539 1150.66 180.496C1150.66 158.453 1155.14 139.068 1164.08 122.341C1173.03 105.614 1185.61 92.7117 1201.82 83.635C1218.02 74.5583 1236.63 70.02 1257.64 70.02C1277.87 70.02 1295.89 74.4287 1311.71 83.246C1327.53 92.0633 1339.85 104.447 1348.66 120.396C1357.48 136.345 1361.89 154.692 1361.89 175.439L1361.89 175.439ZM1315.6 161.435C1315.34 145.097 1309.5 132.001 1298.09 122.146C1286.68 112.291 1272.55 107.364 1255.69 107.364C1240.39 107.364 1227.3 112.227 1216.4 121.952C1205.51 131.677 1199.03 144.838 1196.95 161.435L1315.6 161.435Z" id="Path" fill="#FFFFFF" stroke="none" />
        </g>
        <g id="icon">
          <path d="M0 240.001C0 107.452 107.452 0 240 0C372.55 0 480 107.452 480 240.001C480 372.549 372.55 480 240 480C107.452 480 0 372.549 0 240.001Z" id="Oval" fill="#EF4800" fill-rule="evenodd" stroke="none" />
          <g id="Speech Bubble">
            <path d="M370 0L370 0L370 370L0 370L0 0L370 0Z" id="Speech-Bubble" fill="none" stroke="none" transform="translate(55 55)" />
            <path d="M308.333 169.583C308.333 101.75 252.833 46.25 185 46.25C117.167 46.25 61.6667 101.75 61.6667 169.583C61.6667 237.417 117.167 292.917 185 292.917C189.625 292.917 195.792 292.917 200.417 291.375L200.417 326.834C232.792 305.25 292.917 259 305.25 194.25C306.792 186.542 308.333 178.834 308.333 169.583L308.333 169.583Z" id="Shape" fill="#FFFFFF" fill-opacity="0.3" stroke="none" clip-path="url(#clip_2)" transform="translate(55 55)" />
            <path d="M185 356.125L185 308.333C107.917 308.333 46.25 246.667 46.25 169.583C46.25 92.5 107.917 30.8333 185 30.8333C262.083 30.8333 323.75 92.5 323.75 169.583C323.75 178.833 322.208 189.625 320.667 198.875C306.792 268.25 245.125 317.583 208.125 340.708L185 356.125L185 356.125ZM215.834 274.417L215.834 297.542C246.667 274.417 280.584 237.417 289.834 192.708C291.375 185 292.917 177.292 292.917 169.583C292.917 109.458 245.125 61.6667 185 61.6667C124.875 61.6667 77.0833 109.458 77.0833 169.583C77.0833 229.709 124.875 277.5 185 277.5C189.625 277.5 194.25 277.5 198.875 275.959L215.834 274.417L215.834 274.417Z" id="Shape" fill="#FFFFFF" fill-rule="evenodd" stroke="none" clip-path="url(#clip_2)" transform="translate(55 55)" />
          </g>
        </g>
      </g>
    </g>
  </g>
</svg>